PathFileType	4	(X/Y/Z)	C:/Users/beibeiliu/ov580/test_trc/User2\sequence.13_training_dense_left.trc
DataRate	CameraRate	NumFrames	NumMarkers	Units	OrigDataRate	OrigDataStartFrame	OrigNumFrames
120	120	17	19	mm	120	56	83
Frame#	Time	ThumbCMC			ThumbMCP			ThumbIP			ThumbTip			IndexMCP			IndexPIP			IndexTip			MiddleMCP			MiddlePIP			MiddleTip			RingMCP			RingPIP			RingTip			PinkyMCP			PinkyPIP			PinkyTip			BackHand1			BackHand2			BackHand3	
		X0	Y0	Z0	X1	Y1	Z1	X2	Y2	Z2	X3	Y3	Z3	X4	Y4	Z4	X5	Y5	Z5	X6	Y6	Z6	X7	Y7	Z7	X8	Y8	Z8	X9	Y9	Z9	X10	Y10	Z10	X11	Y11	Z11	X12	Y12	Z12	X13	Y13	Z13	X14	Y14	Z14	X15	Y15	Z15	X16	Y16	Z16	X17	Y17	Z17	X18	Y18	Z18	
55	0.458333	-138.304	-7.97051	-64.7279	-123.201	2.46817	-95.8952	-114.018	9.19788	-128.205	-117.173	-0.908815	-155.671	-179.044	1.39757	-133.368	-162.041	4.3281	-161.838	-128.471	-10.3351	-170.74	-202.5	-16.5594	-134.278	-208.399	-9.87941	-165.815	-205.266	-2.89405	-202.652	-202.406	-43.5295	-131.781	-214.349	-41.1823	-162.628	-216.391	-32.517	-191.633	-190.505	-70.2452	-124.359	-202.119	-69.6233	-150.821	-212.453	-68.9591	-172.739	-185.768	-54.8368	-79.8659	-180.448	-63.1545	-51.2584	-178.469	-23.9713	-57.8859	
56	0.466667	-118.95	-16.0305	-59.6575	-96.7441	-11.7065	-86.2465	-86.2408	-10.4933	-123.578	-86.7316	-19.4164	-147.302	-147.847	7.85086	-132.514	-131.513	-1.95288	-160.01	-106.379	-28.0407	-164.541	-180.105	-1.5475	-134.561	-181.072	6.43506	-167.786	-178.088	6.63787	-199.504	-194.2	-26.6427	-133.116	-198.045	-18.5652	-155.629	-203.715	-15.4603	-188.47	-191.076	-53.6772	-123.527	-202.291	-54.4813	-148.268	-210.467	-45.47	-169.905	-182.648	-41.8485	-77.2667	-178.97	-49.4488	-49.1077	-160.479	-13.2404	-56.7205	
57	0.475	-103.855	-21.1011	-52.8641	-76.9146	-27.4677	-77.7417	-63.4719	-34.7149	-108.568	-65.0375	-47.169	-134.666	-120.787	-7.18319	-133.05	-99.0937	-24.6029	-155.589	-84.933	-53.0301	-153.332	-152.15	-7.96482	-139.015	-148.317	-8.59302	-174.438	-140.655	-12.249	-204.324	-170.432	-26.2355	-133.492	-177.526	-26.3008	-160.899	-176.853	-25.6129	-192.695	-176.229	-52.1822	-119.033	-188.156	-54.942	-146.181	-195.139	-53.7999	-169.335	-170.353	-36.0345	-79.1167	-172.089	-38.0392	-45.4066	-146.423	-12.2524	-57.8609	
58	0.483333	-95.3236	-18.1279	-46.7143	-64.3403	-27.9071	-62.7924	-43.954	-43.0422	-89.8766	-48.5137	-61.3149	-112.15	-96.5454	-20.7802	-129.436	-76.8916	-43.5785	-143.97	-63.1831	-71.049	-132.008	-129.353	-28.5314	-139.887	-119.375	-33.6464	-169.189	-107.662	-46.6166	-199.607	-150.272	-45.1391	-134.824	-148.811	-48.4181	-162.212	-141.753	-51.9002	-188.765	-160.328	-66.9799	-112.851	-161.71	-69.2949	-141.357	-168.009	-73.4065	-162.283	-155.856	-36.8093	-77.8971	-165.829	-35.9523	-43.6752	-137.966	-11.8994	-59.7987	
59	0.491667	-100.256	-4.98887	-43.5987	-63.5226	-11.3797	-58.1919	-37.5139	-27.59	-80.3771	-32.1621	-49.0869	-92.0955	-84.4194	-27.1551	-124.794	-56.6674	-40.3284	-130.426	-36.8558	-61.3263	-110.118	-109.705	-43.8004	-138.735	-96.1494	-55.8265	-161.507	-76.8967	-64.5133	-184.144	-125.11	-60.3183	-129.906	-118.896	-74.8637	-153.97	-106.453	-80.7392	-181.44	-135.94	-82.2165	-108.104	-132.852	-92.384	-132.605	-134.867	-99.8609	-155.825	-145.967	-49.7068	-80.346	-160.877	-41.4188	-52.7268	-137.899	-13.2779	-67.5006	
60	0.5	-109.581	2.06827	-48.3995	-70.009	6.51498	-58.9796	-43.7975	-6.55708	-70.1409	-30.045	-29.2425	-83.9799	-80.8013	-20.786	-123.309	-49.8633	-33.3687	-123.628	-29.2805	-46.4061	-101.091	-103.2	-47.3558	-133.563	-83.1987	-57.5427	-158.363	-58.0881	-68.4315	-180.071	-113.533	-69.9618	-125.991	-100.885	-81.6708	-149.226	-82.9429	-90.8435	-173.141	-119.414	-88.0843	-104.562	-110.914	-101.509	-127.05	-104.714	-108.826	-148.955	-141.067	-53.6974	-76.0419	-159.392	-47.6001	-54.8426	-142.791	-17.8267	-73.3271	
61	0.508333	-118.825	10.1736	-54.0737	-86.0645	16.1103	-59.1163	-51.5711	13.3374	-72.7553	-31.5872	-6.81276	-83.452	-86.1752	-17.9062	-123.038	-53.6625	-17.9976	-123.315	-29.3039	-20.9244	-99.7704	-98.0659	-43.7119	-136.019	-73.7243	-48.7508	-157.405	-50.2836	-60.7302	-171.438	-104.67	-69.4377	-120.118	-86.2072	-77.8243	-144.63	-65.8235	-84.2515	-164.691	-105.879	-87.3581	-99.5015	-94.3046	-94.1692	-118.064	-82.9522	-109.513	-142.132	-137.501	-58.1601	-77.6088	-158.432	-53.4897	-54.5776	-149.088	-20.9519	-73.1538	
62	0.516667	-136.02	11.9806	-55.5909	-100.348	30.5124	-66.5086	-67.1352	34.0907	-76.2955	-46.9471	17.591	-81.0437	-85.8877	-9.39903	-124.884	-55.9561	-6.58872	-120.999	-35.4405	5.78874	-94.0073	-89.4185	-42.707	-132.297	-67.3618	-39.5733	-151.689	-37.8611	-40.0246	-166.864	-92.7122	-61.1234	-117.589	-71.5287	-67.079	-140.672	-47.3604	-70.0903	-158.538	-91.8731	-76.1881	-90.688	-72.7806	-88.0779	-113.089	-62.2508	-95.3778	-128.423	-129.157	-59.2337	-73.8618	-153.085	-59.0601	-52.7839	-151.481	-23.9758	-76.8002	
63	0.525	-150.849	6.57602	-65.4732	-124.295	32.1102	-74.6007	-94.0249	46.355	-83.9351	-64.9549	36.3592	-89.2823	-89.1387	-9.18949	-126.072	-60.8979	6.98239	-120.855	-49.6702	25.1721	-98.148	-87.6598	-40.5923	-127.012	-60.4229	-32.0049	-149.169	-32.2187	-28.3475	-160.576	-78.7069	-59.7056	-113.914	-61.5789	-59.0335	-131.197	-36.3281	-57.8068	-147.173	-74.9644	-70.9436	-85.8699	-56.5933	-73.6228	-101.752	-40.7739	-77.041	-117.784	-120.012	-60.4758	-75.106	-143.262	-67.3838	-53.9642	-150.38	-36.2657	-77.9173	
64	0.533333	-162.359	-5.46463	-72.6166	-144.006	24.0344	-86.5668	-114.902	42.5382	-100.83	-85.066	43.6278	-104.184	-96.9889	-16.0316	-132.148	-77.7191	8.83804	-136.276	-65.1105	27.8771	-109.855	-85.5239	-45.1756	-131.01	-60.4326	-35.2971	-153.976	-35.8939	-28.3282	-165.533	-73.8126	-60.1253	-113.879	-53.1503	-58.9463	-131.41	-30.2969	-52.3352	-150.612	-67.3567	-63.7613	-84.7289	-48.0667	-62.4144	-103.117	-30.0517	-68.2436	-117.329	-116.812	-66.3734	-71.6968	-136.704	-71.6328	-52.5385	-151.475	-47.3066	-80.8358	
65	0.541667	-166.348	-18.396	-81.929	-159.153	13.1918	-98.5757	-129.939	30.821	-117.86	-105.693	35.3342	-122.31	-112.743	-26.4922	-145.062	-95.4072	-3.65848	-150.578	-83.1475	22.9301	-130.148	-98.6418	-55.2523	-139.327	-72.9969	-48.6698	-162.49	-52.4909	-35.6951	-183.543	-81.1999	-65.771	-119.546	-61.8129	-66.8929	-136.039	-42.4455	-58.4395	-163.596	-72.388	-62.7998	-91.4231	-52.4958	-64.1312	-108.152	-32.6135	-68.9813	-126.15	-116.082	-70.6059	-71.9936	-134.96	-76.9455	-49.9581	-152.142	-59.6417	-82.376	
66	0.55	-176.359	-26.3976	-83.452	-166.727	-0.759921	-104.206	-145.91	16.3344	-130.37	-120.856	20.0729	-138.264	-128.535	-42.7463	-152.135	-109.983	-20.5223	-160.601	-100.554	12.2384	-148.039	-110.831	-71.7729	-141.084	-91.6989	-65.0361	-173.415	-74.5526	-52.0031	-198.852	-96.2623	-74.6066	-125.534	-79.734	-76.0435	-149.853	-64.271	-70.6876	-174.461	-81.9049	-68.13	-99.6807	-62.2793	-70.9963	-117.817	-48.0207	-74.2544	-141.341	-120.896	-76.245	-77.8347	-137.717	-77.8753	-51.4807	-159.286	-70.3359	-78.3307	
67	0.558333	-183.766	-32.4585	-83.932	-173.552	-10.7432	-110.079	-159.641	4.51739	-138.867	-135.491	5.48555	-150.863	-145.376	-59.7342	-151.926	-130.615	-34.9989	-172.261	-118.359	-8.12152	-164.958	-128.408	-86.7454	-148.128	-113.639	-84.5561	-178.75	-97.2559	-75.7857	-203.599	-109.172	-88.6887	-128.403	-96.1316	-92.2215	-154.35	-84.8949	-87.1539	-185.501	-92.9228	-80.864	-108.274	-77.7701	-84.7932	-134.294	-62.3369	-88.769	-152.563	-128.267	-84.5564	-75.5182	-140.862	-81.5354	-48.0231	-166.721	-75.3717	-78.9998	
68	0.566667	-189.067	-32.3947	-83.7084	-178.957	-14.1763	-111.57	-165.794	-4.6484	-139.689	-143.974	-7.19094	-160.415	-162.69	-69.7164	-152.647	-149.068	-50.068	-174.888	-129.905	-22.6483	-171.37	-151.197	-93.9811	-145.403	-136.903	-98.0856	-180.848	-122.506	-92.5631	-210.708	-127.647	-101.781	-136.803	-119.501	-104.759	-163.829	-109.493	-100.916	-192.356	-106.299	-94.2511	-115.339	-99.0791	-98.5601	-137.46	-87.402	-103.741	-164.938	-140.811	-90.0246	-80.4684	-146.705	-86.8679	-50.1517	-179.312	-75.4396	-73.878	
69	0.575	-187.558	-23.4405	-81.4378	-176.426	-10.6318	-111.188	-166.223	-1.32462	-146.652	-148.587	-10.1567	-165.545	-180.519	-65.893	-153.541	-161.871	-51.787	-176.256	-142.593	-25.6958	-175.971	-172.486	-95.0929	-144.024	-165.524	-98.8902	-181.609	-154.9	-97.2147	-212.092	-152.508	-105.242	-137.776	-150.586	-107.934	-166.954	-144.283	-106.224	-193.856	-130.764	-100.911	-120.187	-128.007	-106.319	-149.85	-122.538	-111.243	-170.768	-158.478	-89.8717	-81.8022	-158.152	-83.9103	-47.7866	-185.64	-69.8842	-70.7235	
70	0.583333	-179.855	-13.9909	-73.0725	-170.346	-0.640999	-106.947	-161.198	7.92298	-140.26	-148.125	-6.07671	-163.477	-197.451	-48.1277	-146.768	-177.424	-38.6643	-174.339	-148.293	-21.0032	-176.554	-196.54	-79.4406	-145.006	-194.715	-82.1378	-180.595	-182.113	-85.2312	-211.686	-179.504	-95.3178	-140.306	-180.019	-96.224	-169.306	-171.58	-97.6102	-198.448	-155.456	-96.6866	-122.29	-154.717	-106.1	-155.197	-153.901	-106.773	-180.418	-171.245	-85.4771	-79.4164	-172.087	-76.9063	-50.6937	-195.382	-54.05	-71.8832	
71	0.591667	-169.224	-3.34336	-69.4346	-155.986	11.2832	-98.8988	-148.721	19.3176	-136.572	-141.944	6.64204	-160.617	-200.106	-25.4157	-139.789	-181.332	-16.1433	-168.438	-152.096	-9.50333	-172.636	-209.965	-56.079	-142.439	-212.504	-50.9455	-178.6	-203.06	-54.3056	-211.442	-198.803	-70.7573	-138.847	-202.271	-71.3216	-168.414	-197.867	-66.865	-197.595	-176.424	-84.1564	-123.31	-180.328	-88.7204	-152.645	-184.651	-83.421	-181.335	-182.225	-72.3701	-78.7813	-176.514	-68.8754	-46.3265	-196.388	-38.8291	-63.1747	
